<mxfile host="Electron" agent="Mozilla/5.0 (Macintosh; Intel Mac OS X 10_15_7) AppleWebKit/537.36 (KHTML, like Gecko) draw.io/26.1.1 Chrome/132.0.6834.210 Electron/34.3.3 Safari/537.36" version="26.1.1">
  <diagram name="Page-1" id="YYtXnR7oqjmeBr8r7-_5">
    <mxGraphModel dx="1114" dy="878" grid="1" gridSize="10" guides="1" tooltips="1" connect="1" arrows="1" fold="1" page="1" pageScale="1" pageWidth="827" pageHeight="1169" math="0" shadow="0">
      <root>
        <mxCell id="0" />
        <mxCell id="1" parent="0" />
        <mxCell id="DJy6xbgnI4aKQwFbP3v9-3" value="백그라운드 스레드" style="rounded=1;whiteSpace=wrap;html=1;verticalAlign=top;fontStyle=1" vertex="1" parent="1">
          <mxGeometry x="400" y="280" width="120" height="100" as="geometry" />
        </mxCell>
        <mxCell id="DJy6xbgnI4aKQwFbP3v9-7" value="" style="rounded=1;whiteSpace=wrap;html=1;" vertex="1" parent="1">
          <mxGeometry x="410" y="310" width="100" height="60" as="geometry" />
        </mxCell>
        <mxCell id="DJy6xbgnI4aKQwFbP3v9-1" value="" style="rounded=1;whiteSpace=wrap;html=1;verticalAlign=top;fontStyle=1" vertex="1" parent="1">
          <mxGeometry x="400" y="110" width="120" height="80" as="geometry" />
        </mxCell>
        <mxCell id="DJy6xbgnI4aKQwFbP3v9-2" value="coroutine#1" style="rounded=0;whiteSpace=wrap;html=1;fillColor=#dae8fc;strokeColor=#6c8ebf;" vertex="1" parent="1">
          <mxGeometry x="420" y="140" width="80" height="30" as="geometry" />
        </mxCell>
        <mxCell id="DJy6xbgnI4aKQwFbP3v9-4" value="coroutine#1" style="rounded=0;whiteSpace=wrap;html=1;fillColor=#dae8fc;strokeColor=#6c8ebf;" vertex="1" parent="1">
          <mxGeometry x="420" y="325" width="80" height="30" as="geometry" />
        </mxCell>
        <mxCell id="DJy6xbgnI4aKQwFbP3v9-5" value="메인 스레드" style="text;html=1;align=center;verticalAlign=middle;whiteSpace=wrap;rounded=0;fontStyle=1" vertex="1" parent="1">
          <mxGeometry x="430" y="80" width="60" height="30" as="geometry" />
        </mxCell>
        <mxCell id="DJy6xbgnI4aKQwFbP3v9-6" value="공유 스레드 풀" style="text;html=1;align=center;verticalAlign=middle;whiteSpace=wrap;rounded=0;fontStyle=1" vertex="1" parent="1">
          <mxGeometry x="417" y="250" width="80" height="30" as="geometry" />
        </mxCell>
        <mxCell id="DJy6xbgnI4aKQwFbP3v9-8" value="작업 대기열" style="rounded=1;whiteSpace=wrap;html=1;verticalAlign=top;fontStyle=1" vertex="1" parent="1">
          <mxGeometry x="150" y="200" width="120" height="100" as="geometry" />
        </mxCell>
        <mxCell id="DJy6xbgnI4aKQwFbP3v9-9" value="" style="rounded=1;whiteSpace=wrap;html=1;" vertex="1" parent="1">
          <mxGeometry x="160" y="230" width="100" height="60" as="geometry" />
        </mxCell>
        <mxCell id="DJy6xbgnI4aKQwFbP3v9-11" value="Dispatchers.IO" style="text;html=1;align=center;verticalAlign=middle;whiteSpace=wrap;rounded=0;fontStyle=1" vertex="1" parent="1">
          <mxGeometry x="167" y="170" width="80" height="30" as="geometry" />
        </mxCell>
        <mxCell id="DJy6xbgnI4aKQwFbP3v9-12" style="rounded=0;orthogonalLoop=1;jettySize=auto;html=1;entryX=1;entryY=0.5;entryDx=0;entryDy=0;endArrow=block;endFill=1;" edge="1" parent="1" source="DJy6xbgnI4aKQwFbP3v9-2" target="DJy6xbgnI4aKQwFbP3v9-10">
          <mxGeometry relative="1" as="geometry" />
        </mxCell>
        <mxCell id="DJy6xbgnI4aKQwFbP3v9-13" style="rounded=0;orthogonalLoop=1;jettySize=auto;html=1;entryX=0;entryY=0.5;entryDx=0;entryDy=0;endArrow=block;endFill=1;" edge="1" parent="1" source="DJy6xbgnI4aKQwFbP3v9-10" target="DJy6xbgnI4aKQwFbP3v9-4">
          <mxGeometry relative="1" as="geometry" />
        </mxCell>
        <mxCell id="DJy6xbgnI4aKQwFbP3v9-10" value="coroutine#1" style="rounded=0;whiteSpace=wrap;html=1;fillColor=#dae8fc;strokeColor=#6c8ebf;" vertex="1" parent="1">
          <mxGeometry x="170" y="245" width="80" height="30" as="geometry" />
        </mxCell>
        <mxCell id="DJy6xbgnI4aKQwFbP3v9-14" value="withContext(Dispatchers.IO)" style="text;html=1;align=center;verticalAlign=middle;whiteSpace=wrap;rounded=0;" vertex="1" parent="1">
          <mxGeometry x="340" y="210" width="160" height="30" as="geometry" />
        </mxCell>
        <mxCell id="DJy6xbgnI4aKQwFbP3v9-15" value="dispatch" style="text;html=1;align=center;verticalAlign=middle;whiteSpace=wrap;rounded=0;" vertex="1" parent="1">
          <mxGeometry x="280" y="300" width="70" height="30" as="geometry" />
        </mxCell>
      </root>
    </mxGraphModel>
  </diagram>
</mxfile>
